# xmcd CD database file
#
# Track frame offsets:
#	150
#	27468
#	57931
#	78723
#	104590
#	108322
#	134436
#	152875
#	180900
#
# Disc length: 2648 seconds
#
# Revision: 0
# Processed by: cddbd v1.4PL0 Copyright (c) Steve Scherf et al.
# Submitted via: CDex 1.50
#
DISCID=760a5609
DTITLE=Saya - Destination Faraway
DYEAR=2002
DGENRE=Jazz
TTITLE0=The Traveler
TTITLE1=Southern Wind
TTITLE2=Until We Meet Again
TTITLE3=Rainy Day
TTITLE4=Via Spring
TTITLE5=Chopin in Caribbean
TTITLE6=Detination Faraway
TTITLE7=Butterfly
TTITLE8=Unknown
EXTD=YEAR: 2002
EXTT0=
EXTT1=
EXTT2=
EXTT3=
EXTT4=
EXTT5=
EXTT6=
EXTT7=
EXTT8=
PLAYORDER=
